<svg xmlns="http://www.w3.org/2000/svg" width="24" height="24" viewBox="0 0 24 24">
    <g fill="none" fill-rule="evenodd">
        <path fill="#000" fill-opacity=".27" fill-rule="nonzero" d="M21.722 19.23v.004H1.644A.641.641 0 0 1 1 18.6v-1.016a1.55 1.55 0 0 1 .49-1.043s4.206-3.513 4.521-9.114c.38-6.698 3.864-6.425 5.672-6.425 1.808 0 5.291-.273 5.671 6.43.316 5.594 4.522 9.114 4.522 9.114.292.274.467.646.49 1.042V18.6a.641.641 0 0 1-.644.63zM9.119 20.49h5.128c0 1.155-.962 2.51-2.137 2.51h-.854c-1.175 0-2.137-1.355-2.137-2.51z"/>
        <path d="M0 0h24v24H0z"/>
    </g>
</svg>
