<svg xmlns="http://www.w3.org/2000/svg" width="24" height="24" viewBox="0 0 24 24">
    <g fill="none" fill-rule="evenodd">
        <path d="M0 0h24v24H0z"/>
        <path fill="#000" fill-opacity=".27" d="M1 3c0-1.105.887-2 2-2h6c1.105 0 2 .887 2 2v6c0 1.105-.887 2-2 2H3c-1.105 0-2-.887-2-2V3zm12 0c0-1.105.887-2 2-2h6c1.105 0 2 .887 2 2v6c0 1.105-.887 2-2 2h-6c-1.105 0-2-.887-2-2V3zM1 15c0-1.105.887-2 2-2h6c1.105 0 2 .887 2 2v6c0 1.105-.887 2-2 2H3c-1.105 0-2-.887-2-2v-6zm12 0c0-1.105.887-2 2-2h6c1.105 0 2 .887 2 2v6c0 1.105-.887 2-2 2h-6c-1.105 0-2-.887-2-2v-6z"/>
    </g>
</svg>
