<svg xmlns="http://www.w3.org/2000/svg" width="24" height="24" viewBox="0 0 24 24">
    <g fill="none" fill-rule="evenodd">
        <path d="M0 0h24v24H0z"/>
        <g fill="#000" fill-rule="nonzero" opacity=".27">
            <path d="M6.118 18.065l2.57 2.731-3.672.84-3.673.84 1.103-3.572 1.102-3.57z"/>
            <path d="M12.786 22.961c6.04 0 10.955-4.869 10.955-10.853 0-5.985-4.914-10.854-10.955-10.854S1.83 6.124 1.83 12.108c0 5.984 4.915 10.853 10.956 10.853zm4.61-9.357c-.835 0-1.511-.67-1.511-1.496 0-.827.676-1.497 1.51-1.497.835 0 1.51.67 1.51 1.497 0 .826-.675 1.496-1.51 1.496zm-4.666 0c-.834 0-1.51-.67-1.51-1.496 0-.827.676-1.497 1.51-1.497.835 0 1.51.67 1.51 1.497 0 .826-.675 1.496-1.51 1.496zm-4.554 0c-.834 0-1.51-.67-1.51-1.496 0-.827.676-1.497 1.51-1.497.835 0 1.51.67 1.51 1.497 0 .826-.675 1.496-1.51 1.496z"/>
        </g>
    </g>
</svg>
